# xmcd
#
# Track frame offsets:
#	150
#	23600
#	41142
#	53845
#	67759
#	85656
#	98948
#	116299
#	130971
#	149588
#	163037
#	180013
#	203105
#	220847
#	237547
#
# Disc length: 3409 seconds
# Revision: 0
# Processed by: cddbd v1.5.2PL0 Copyright (c) Steve Scherf et al.
# Submitted via: dBpowerAMP V12.0
#
DISCID=c80d4f0f
DTITLE=Bryan Fustukian - 1973 - 1993
DYEAR=1997
DGENRE=
TTITLE0=Lonesome Cowboy Song
TTITLE1=Phyllis - Wait for the Wagon
TTITLE2=Backwoods
TTITLE3=Sing a Jimmie Rodgers Song
TTITLE4=Did you Hear
TTITLE5=Durango
TTITLE6=You're Only a Woman
TTITLE7=Night Riders
TTITLE8=When The Snow Is On The Roses
TTITLE9=You're On My Mind
TTITLE10=Vaquero
TTITLE11=Tumbleweeds
TTITLE12=Life in the Fast Lane
TTITLE13=You've Gotta Believe
TTITLE14=Lonesome Cowboy Song
EXTD=
EXTT0=
EXTT1=
EXTT2=
EXTT3=
EXTT4=
EXTT5=
EXTT6=
EXTT7=
EXTT8=
EXTT9=
EXTT10=
EXTT11=
EXTT12=
EXTT13=
EXTT14=
PLAYORDER=
